<svg width="351.45001220703125px" height="153.6000030517578px" xmlns="http://www.w3.org/2000/svg" viewBox="74.27499389648438 -1.8000015258788977 351.45001220703125 153.6000030517578" style="background: none;" preserveAspectRatio="xMidYMid"><defs><filter id="editing-extrusion" x="-100%" y="-100%" width="300%" height="300%"><feFlood result="color1" flood-color="#2f5a06"></feFlood><feConvolveMatrix order="8,8" divisor="1" kernelMatrix="1 0 0 0 0 0 0 0 0 1 0 0 0 0 0 0 0 0 1 0 0 0 0 0 0 0 0 1 0 0 0 0 0 0 0 0 1 0 0 0 0 0 0 0 0 1 0 0 0 0 0 0 0 0 1 0 0 0 0 0 0 0 0 1" in="SourceAlpha" result="extrude"></feConvolveMatrix><feComposite in="color1" in2="extrude" result="comp-extrude" operator="in"></feComposite><feOffset dx="4" dy="4" in="comp-extrude" result="offset-extrude"></feOffset><feMerge><feMergeNode in="offset-extrude"></feMergeNode><feMergeNode in="SourceGraphic"></feMergeNode></feMerge></filter></defs><g filter="url(#editing-extrusion)"><g transform="translate(128.94497776031494, 96.69499588012695)"><path d="M16.64-6.91L16.64-6.91L16.64-6.91Q17.73-6.91 19.04-7.14L19.04-7.14L19.04-7.14Q20.35-7.36 20.99-7.74L20.99-7.74L20.99-12.86L16.38-12.48L16.38-12.48Q14.59-12.35 13.44-11.71L13.44-11.71L13.44-11.71Q12.29-11.07 12.29-9.79L12.29-9.79L12.29-9.79Q12.29-8.51 13.28-7.71L13.28-7.71L13.28-7.71Q14.27-6.91 16.64-6.91ZM16.13-32.06L16.13-32.06L16.13-32.06Q19.58-32.06 22.43-31.36L22.43-31.36L22.43-31.36Q25.28-30.66 27.30-29.22L27.30-29.22L27.30-29.22Q29.31-27.78 30.40-25.57L30.40-25.57L30.40-25.57Q31.49-23.36 31.49-20.35L31.49-20.35L31.49-6.02L31.49-6.02Q31.49-4.35 30.56-3.30L30.56-3.30L30.56-3.30Q29.63-2.24 28.35-1.47L28.35-1.47L28.35-1.47Q24.19 1.02 16.64 1.02L16.64 1.02L16.64 1.02Q13.25 1.02 10.53 0.38L10.53 0.38L10.53 0.38Q7.81-0.26 5.86-1.54L5.86-1.54L5.86-1.54Q3.90-2.82 2.85-4.80L2.85-4.80L2.85-4.80Q1.79-6.78 1.79-9.41L1.79-9.41L1.79-9.41Q1.79-13.82 4.42-16.19L4.42-16.19L4.42-16.19Q7.04-18.56 12.54-19.14L12.54-19.14L20.93-20.03L20.93-20.48L20.93-20.48Q20.93-22.34 19.30-23.14L19.30-23.14L19.30-23.14Q17.66-23.94 14.59-23.94L14.59-23.94L14.59-23.94Q12.16-23.94 9.86-23.42L9.86-23.42L9.86-23.42Q7.55-22.91 5.70-22.14L5.70-22.14L5.70-22.14Q4.86-22.72 4.29-23.90L4.29-23.90L4.29-23.90Q3.71-25.09 3.71-26.37L3.71-26.37L3.71-26.37Q3.71-28.03 4.51-29.02L4.51-29.02L4.51-29.02Q5.31-30.02 6.98-30.72L6.98-30.72L6.98-30.72Q8.83-31.42 11.36-31.74L11.36-31.74L11.36-31.74Q13.89-32.06 16.13-32.06ZM64.38-9.28L64.38-9.28L64.38-9.28Q64.38-4.42 60.74-1.66L60.74-1.66L60.74-1.66Q57.09 1.09 49.98 1.09L49.98 1.09L49.98 1.09Q47.30 1.09 44.99 0.70L44.99 0.70L44.99 0.70Q42.69 0.32 41.06-0.48L41.06-0.48L41.06-0.48Q39.42-1.28 38.50-2.50L38.50-2.50L38.50-2.50Q37.57-3.71 37.57-5.38L37.57-5.38L37.57-5.38Q37.57-6.91 38.21-7.97L38.21-7.97L38.21-7.97Q38.85-9.02 39.74-9.73L39.74-9.73L39.74-9.73Q41.60-8.70 44-7.90L44-7.90L44-7.90Q46.40-7.10 49.54-7.10L49.54-7.10L49.54-7.10Q51.52-7.10 52.58-7.68L52.58-7.68L52.58-7.68Q53.63-8.26 53.63-9.22L53.63-9.22L53.63-9.22Q53.63-10.11 52.86-10.62L52.86-10.62L52.86-10.62Q52.10-11.14 50.30-11.46L50.30-11.46L48.38-11.84L48.38-11.84Q42.82-12.93 40.10-15.26L40.10-15.26L40.10-15.26Q37.38-17.60 37.38-21.95L37.38-21.95L37.38-21.95Q37.38-24.32 38.40-26.24L38.40-26.24L38.40-26.24Q39.42-28.16 41.28-29.44L41.28-29.44L41.28-29.44Q43.14-30.72 45.73-31.42L45.73-31.42L45.73-31.42Q48.32-32.13 51.46-32.13L51.46-32.13L51.46-32.13Q53.82-32.13 55.90-31.78L55.90-31.78L55.90-31.78Q57.98-31.42 59.52-30.72L59.52-30.72L59.52-30.72Q61.06-30.02 61.95-28.90L61.95-28.90L61.95-28.90Q62.85-27.78 62.85-26.24L62.85-26.24L62.85-26.24Q62.85-24.77 62.30-23.71L62.30-23.71L62.30-23.71Q61.76-22.66 60.93-21.95L60.93-21.95L60.93-21.95Q60.42-22.27 59.39-22.62L59.39-22.62L59.39-22.62Q58.37-22.98 57.15-23.26L57.15-23.26L57.15-23.26Q55.94-23.55 54.69-23.74L54.69-23.74L54.69-23.74Q53.44-23.94 52.42-23.94L52.42-23.94L52.42-23.94Q50.30-23.94 49.15-23.46L49.15-23.46L49.15-23.46Q48-22.98 48-21.95L48-21.95L48-21.95Q48-21.25 48.64-20.80L48.64-20.80L48.64-20.80Q49.28-20.35 51.07-19.97L51.07-19.97L53.06-19.52L53.06-19.52Q59.20-18.11 61.79-15.65L61.79-15.65L61.79-15.65Q64.38-13.18 64.38-9.28ZM89.79-15.87L100.03-5.63L100.03-5.63Q99.71-2.62 98.27-1.02L98.27-1.02L98.27-1.02Q96.83 0.58 94.08 0.58L94.08 0.58L94.08 0.58Q92.03 0.58 90.43-0.42L90.43-0.42L90.43-0.42Q88.83-1.41 86.98-3.78L86.98-3.78L80.64-11.71L80.64-0.06L80.64-0.06Q79.94 0.06 78.56 0.29L78.56 0.29L78.56 0.29Q77.18 0.51 75.78 0.51L75.78 0.51L75.78 0.51Q74.37 0.51 73.25 0.32L73.25 0.32L73.25 0.32Q72.13 0.13 71.36-0.45L71.36-0.45L71.36-0.45Q70.59-1.02 70.18-2.02L70.18-2.02L70.18-2.02Q69.76-3.01 69.76-4.61L69.76-4.61L69.76-41.66L69.76-41.66Q70.46-41.86 71.84-42.08L71.84-42.08L71.84-42.08Q73.22-42.30 74.62-42.30L74.62-42.30L74.62-42.30Q76.03-42.30 77.15-42.11L77.15-42.11L77.15-42.11Q78.27-41.92 79.04-41.34L79.04-41.34L79.04-41.34Q79.81-40.77 80.22-39.78L80.22-39.78L80.22-39.78Q80.64-38.78 80.64-37.18L80.64-37.18L80.64-20.29L91.65-31.55L91.65-31.55Q94.98-31.55 96.99-30.08L96.99-30.08L96.99-30.08Q99.01-28.61 99.01-26.37L99.01-26.37L99.01-26.37Q99.01-25.41 98.69-24.61L98.69-24.61L98.69-24.61Q98.37-23.81 97.70-22.98L97.70-22.98L97.70-22.98Q97.02-22.14 95.97-21.22L95.97-21.22L95.97-21.22Q94.91-20.29 93.50-19.07L93.50-19.07L89.79-15.87ZM128.83-20.35L128.83-10.69L128.83-10.69Q128.83-9.02 129.89-8.32L129.89-8.32L129.89-8.32Q130.94-7.62 132.86-7.62L132.86-7.62L132.86-7.62Q133.82-7.62 134.85-7.78L134.85-7.78L134.85-7.78Q135.87-7.94 136.64-8.19L136.64-8.19L136.64-8.19Q137.22-7.49 137.63-6.62L137.63-6.62L137.63-6.62Q138.05-5.76 138.05-4.54L138.05-4.54L138.05-4.54Q138.05-2.11 136.22-0.58L136.22-0.58L136.22-0.58Q134.40 0.96 129.79 0.96L129.79 0.96L129.79 0.96Q124.16 0.96 121.12-1.60L121.12-1.60L121.12-1.60Q118.08-4.16 118.08-9.92L118.08-9.92L118.08-37.31L118.08-37.31Q118.78-37.50 120.10-37.73L120.10-37.73L120.10-37.73Q121.41-37.95 122.88-37.95L122.88-37.95L122.88-37.95Q125.70-37.95 127.26-36.96L127.26-36.96L127.26-36.96Q128.83-35.97 128.83-32.77L128.83-32.77L128.83-28.67L137.22-28.67L137.22-28.67Q137.60-27.97 137.95-26.91L137.95-26.91L137.95-26.91Q138.30-25.86 138.30-24.58L138.30-24.58L138.30-24.58Q138.30-22.34 137.31-21.34L137.31-21.34L137.31-21.34Q136.32-20.35 134.66-20.35L134.66-20.35L128.83-20.35ZM159.62 1.02L159.62 1.02L159.62 1.02Q155.84 1.02 152.61-0.03L152.61-0.03L152.61-0.03Q149.38-1.09 146.98-3.20L146.98-3.20L146.98-3.20Q144.58-5.31 143.20-8.51L143.20-8.51L143.20-8.51Q141.82-11.71 141.82-16L141.82-16L141.82-16Q141.82-20.22 143.20-23.26L143.20-23.26L143.20-23.26Q144.58-26.30 146.82-28.26L146.82-28.26L146.82-28.26Q149.06-30.21 151.94-31.14L151.94-31.14L151.94-31.14Q154.82-32.06 157.82-32.06L157.82-32.06L157.82-32.06Q161.22-32.06 164.00-31.04L164.00-31.04L164.00-31.04Q166.78-30.02 168.80-28.22L168.80-28.22L168.80-28.22Q170.82-26.43 171.94-23.94L171.94-23.94L171.94-23.94Q173.06-21.44 173.06-18.50L173.06-18.50L173.06-18.50Q173.06-16.32 171.84-15.17L171.84-15.17L171.84-15.17Q170.62-14.02 168.45-13.70L168.45-13.70L152.64-11.33L152.64-11.33Q153.34-9.22 155.52-8.16L155.52-8.16L155.52-8.16Q157.70-7.10 160.51-7.10L160.51-7.10L160.51-7.10Q163.14-7.10 165.47-7.78L165.47-7.78L165.47-7.78Q167.81-8.45 169.28-9.34L169.28-9.34L169.28-9.34Q170.30-8.70 171.01-7.55L171.01-7.55L171.01-7.55Q171.71-6.40 171.71-5.12L171.71-5.12L171.71-5.12Q171.71-2.24 169.02-0.83L169.02-0.83L169.02-0.83Q166.98 0.26 164.42 0.64L164.42 0.64L164.42 0.64Q161.86 1.02 159.62 1.02ZM157.82-24.13L157.82-24.13L157.82-24.13Q156.29-24.13 155.17-23.62L155.17-23.62L155.17-23.62Q154.05-23.10 153.34-22.30L153.34-22.30L153.34-22.30Q152.64-21.50 152.29-20.51L152.29-20.51L152.29-20.51Q151.94-19.52 151.87-18.50L151.87-18.50L162.82-20.29L162.82-20.29Q162.62-21.57 161.41-22.85L161.41-22.85L161.41-22.85Q160.19-24.13 157.82-24.13ZM195.84-23.49L195.84-23.49L195.84-23.49Q194.24-23.49 192.80-22.98L192.80-22.98L192.80-22.98Q191.36-22.46 190.30-21.47L190.30-21.47L190.30-21.47Q189.25-20.48 188.61-19.01L188.61-19.01L188.61-19.01Q187.97-17.54 187.97-15.55L187.97-15.55L187.97-15.55Q187.97-11.58 190.24-9.60L190.24-9.60L190.24-9.60Q192.51-7.62 195.78-7.62L195.78-7.62L195.78-7.62Q197.70-7.62 199.10-8.06L199.10-8.06L199.10-8.06Q200.51-8.51 201.60-9.02L201.60-9.02L201.60-9.02Q202.88-8.13 203.52-7.07L203.52-7.07L203.52-7.07Q204.16-6.02 204.16-4.54L204.16-4.54L204.16-4.54Q204.16-1.92 201.66-0.48L201.66-0.48L201.66-0.48Q199.17 0.96 194.75 0.96L194.75 0.96L194.75 0.96Q190.72 0.96 187.46-0.22L187.46-0.22L187.46-0.22Q184.19-1.41 181.86-3.55L181.86-3.55L181.86-3.55Q179.52-5.70 178.24-8.70L178.24-8.70L178.24-8.70Q176.96-11.71 176.96-15.36L176.96-15.36L176.96-15.36Q176.96-19.58 178.34-22.75L178.34-22.75L178.34-22.75Q179.71-25.92 182.08-27.97L182.08-27.97L182.08-27.97Q184.45-30.02 187.55-31.04L187.55-31.04L187.55-31.04Q190.66-32.06 194.11-32.06L194.11-32.06L194.11-32.06Q198.72-32.06 201.22-30.40L201.22-30.40L201.22-30.40Q203.71-28.74 203.71-26.11L203.71-26.11L203.71-26.11Q203.71-24.90 203.14-23.84L203.14-23.84L203.14-23.84Q202.56-22.78 201.79-22.02L201.79-22.02L201.79-22.02Q200.70-22.53 199.17-23.01L199.17-23.01L199.17-23.01Q197.63-23.49 195.84-23.49ZM240.32-19.46L240.32-0.06L240.32-0.06Q239.68 0.13 238.30 0.32L238.30 0.32L238.30 0.32Q236.93 0.51 235.46 0.51L235.46 0.51L235.46 0.51Q234.05 0.51 232.93 0.32L232.93 0.32L232.93 0.32Q231.81 0.13 231.04-0.45L231.04-0.45L231.04-0.45Q230.27-1.02 229.86-2.02L229.86-2.02L229.86-2.02Q229.44-3.01 229.44-4.61L229.44-4.61L229.44-18.82L229.44-18.82Q229.44-21.44 228.13-22.50L228.13-22.50L228.13-22.50Q226.82-23.55 224.90-23.55L224.90-23.55L224.90-23.55Q223.62-23.55 222.46-23.23L222.46-23.23L222.46-23.23Q221.31-22.91 220.61-22.46L220.61-22.46L220.61-0.06L220.61-0.06Q219.97 0.13 218.59 0.32L218.59 0.32L218.59 0.32Q217.22 0.51 215.74 0.51L215.74 0.51L215.74 0.51Q214.34 0.51 213.22 0.32L213.22 0.32L213.22 0.32Q212.10 0.13 211.33-0.45L211.33-0.45L211.33-0.45Q210.56-1.02 210.14-2.02L210.14-2.02L210.14-2.02Q209.73-3.01 209.73-4.61L209.73-4.61L209.73-41.73L209.73-41.73Q210.43-41.86 211.81-42.08L211.81-42.08L211.81-42.08Q213.18-42.30 214.59-42.30L214.59-42.30L214.59-42.30Q216.00-42.30 217.12-42.11L217.12-42.11L217.12-42.11Q218.24-41.92 219.01-41.34L219.01-41.34L219.01-41.34Q219.78-40.77 220.19-39.78L220.19-39.78L220.19-39.78Q220.61-38.78 220.61-37.18L220.61-37.18L220.61-30.91L220.61-30.91Q221.44-31.23 223.14-31.65L223.14-31.65L223.14-31.65Q224.83-32.06 226.88-32.06L226.88-32.06L226.88-32.06Q233.22-32.06 236.77-28.90L236.77-28.90L236.77-28.90Q240.32-25.73 240.32-19.46L240.32-19.46Z" fill="#ebc710"></path></g></g><style>text {
  font-size: 64px;
  font-family: Arial Black;
  dominant-baseline: central;
  text-anchor: middle;
}</style></svg>